<svg width="426" height="426" xmlns="http://www.w3.org/2000/svg" xmlns:xlink="http://www.w3.org/1999/xlink" overflow="hidden"><defs><filter id="fx0" x="-10%" y="-10%" width="120%" height="120%" filterUnits="userSpaceOnUse" primitiveUnits="userSpaceOnUse"><feComponentTransfer color-interpolation-filters="sRGB"><feFuncR type="discrete" tableValues="0 0"/><feFuncG type="discrete" tableValues="0 0"/><feFuncB type="discrete" tableValues="0 0"/><feFuncA type="linear" slope="0.4" intercept="0"/></feComponentTransfer><feGaussianBlur stdDeviation="1.77778 1.77778"/></filter><filter id="fx1" x="-10%" y="-10%" width="120%" height="120%" filterUnits="userSpaceOnUse" primitiveUnits="userSpaceOnUse"><feComponentTransfer color-interpolation-filters="sRGB"><feFuncR type="discrete" tableValues="0 0"/><feFuncG type="discrete" tableValues="0 0"/><feFuncB type="discrete" tableValues="0 0"/><feFuncA type="linear" slope="0.4" intercept="0"/></feComponentTransfer><feGaussianBlur stdDeviation="1.77778 1.77778"/></filter><clipPath id="clip2"><rect x="427" y="147" width="426" height="426"/></clipPath><clipPath id="clip3"><rect x="-2" y="-2" width="112" height="112"/></clipPath><clipPath id="clip4"><rect x="0" y="0" width="110" height="110"/></clipPath><linearGradient x1="640" y1="432" x2="640" y2="528" gradientUnits="userSpaceOnUse" spreadMethod="reflect" id="fill5"><stop offset="0" stop-color="#25FF88"/><stop offset="0.54" stop-color="#00B050"/><stop offset="1" stop-color="#00B050"/></linearGradient><clipPath id="clip6"><rect x="-2" y="-2" width="304" height="304"/></clipPath><clipPath id="clip7"><rect x="0" y="0" width="302" height="302"/></clipPath><clipPath id="clip8"><path d="M7 277.862 7 277.862 7 277.862ZM151 7C217.274 7 271 60.8972 271 127.383L271 260.724 277.917 260.724C287.351 260.724 295 268.397 295 277.862L295 277.862C295 287.327 287.351 295 277.916 295L24.0834 295C17.0073 295 10.936 290.684 8.34252 284.533L7 277.862 8.34252 271.191C10.936 265.04 17.0073 260.724 24.0834 260.724L31 260.724 31 127.383C31 60.8972 84.7256 7 151 7Z" fill-rule="evenodd" clip-rule="evenodd"/></clipPath><clipPath id="clip9"><rect x="7" y="7" width="288" height="288"/></clipPath><clipPath id="clip10"><rect x="7" y="7" width="288" height="288"/></clipPath><clipPath id="clip11"><rect x="7" y="7" width="288" height="288"/></clipPath><clipPath id="clip12"><path d="M496 462.862 496 462.862 496 462.862ZM640 192C706.274 192 760 245.897 760 312.383L760 445.724 766.917 445.724C776.351 445.724 784 453.397 784 462.862L784 462.862C784 472.327 776.351 480 766.916 480L513.083 480C506.007 480 499.936 475.684 497.343 469.533L496 462.862 497.343 456.191C499.936 450.04 506.007 445.724 513.083 445.724L520 445.724 520 312.383C520 245.897 573.726 192 640 192Z" fill-rule="evenodd" clip-rule="evenodd"/></clipPath><clipPath id="clip13"><rect x="496" y="192" width="288" height="288"/></clipPath><clipPath id="clip14"><rect x="496" y="192" width="288" height="288"/></clipPath><clipPath id="clip15"><rect x="496" y="192" width="288" height="288"/></clipPath><clipPath id="clip16"><path d="M604.861 204.862 771.138 300.862 675.138 467.138 508.861 371.138Z" fill-rule="evenodd" clip-rule="evenodd"/></clipPath><clipPath id="clip17"><path d="M604.861 204.862 771.138 300.862 675.138 467.138 508.861 371.138Z" fill-rule="evenodd" clip-rule="evenodd"/></clipPath><clipPath id="clip18"><path d="M604.861 204.862 771.138 300.862 675.138 467.138 508.861 371.138Z" fill-rule="evenodd" clip-rule="evenodd"/></clipPath><linearGradient x1="640" y1="148" x2="640" y2="572" gradientUnits="userSpaceOnUse" spreadMethod="reflect" id="stroke19"><stop offset="0" stop-color="#25FF88"/><stop offset="0.0128205" stop-color="#24FE87"/><stop offset="0.025641" stop-color="#24FE87"/><stop offset="0.0384615" stop-color="#24FE87"/><stop offset="0.0512821" stop-color="#24FE87"/><stop offset="0.0641026" stop-color="#24FE87"/><stop offset="0.0769231" stop-color="#24FE87"/><stop offset="0.0897436" stop-color="#24FE87"/><stop offset="0.102564" stop-color="#24FD87"/><stop offset="0.115385" stop-color="#24FD87"/><stop offset="0.128205" stop-color="#24FD86"/><stop offset="0.141026" stop-color="#24FC86"/><stop offset="0.153846" stop-color="#23FC86"/><stop offset="0.166667" stop-color="#23FC86"/><stop offset="0.179487" stop-color="#23FB85"/><stop offset="0.192308" stop-color="#23FB85"/><stop offset="0.205128" stop-color="#23FA85"/><stop offset="0.217949" stop-color="#22FA84"/><stop offset="0.230769" stop-color="#22F984"/><stop offset="0.24359" stop-color="#22F984"/><stop offset="0.25641" stop-color="#22F883"/><stop offset="0.269231" stop-color="#21F883"/><stop offset="0.282051" stop-color="#21F782"/><stop offset="0.294872" stop-color="#21F682"/><stop offset="0.307692" stop-color="#20F681"/><stop offset="0.320513" stop-color="#20F581"/><stop offset="0.333333" stop-color="#20F480"/><stop offset="0.346154" stop-color="#1FF480"/><stop offset="0.358974" stop-color="#1FF37F"/><stop offset="0.371795" stop-color="#1FF27F"/><stop offset="0.384615" stop-color="#1EF17E"/><stop offset="0.397436" stop-color="#1EF07E"/><stop offset="0.410256" stop-color="#1EF07D"/><stop offset="0.423077" stop-color="#1DEF7C"/><stop offset="0.435897" stop-color="#1DEE7C"/><stop offset="0.448718" stop-color="#1CED7B"/><stop offset="0.461538" stop-color="#1CEC7A"/><stop offset="0.474359" stop-color="#1BEB7A"/><stop offset="0.487179" stop-color="#1BEA79"/><stop offset="0.5" stop-color="#1AE978"/><stop offset="0.512821" stop-color="#1AE877"/><stop offset="0.525641" stop-color="#19E777"/><stop offset="0.538462" stop-color="#19E676"/><stop offset="0.551282" stop-color="#18E575"/><stop offset="0.564103" stop-color="#18E374"/><stop offset="0.576923" stop-color="#17E274"/><stop offset="0.589744" stop-color="#17E173"/><stop offset="0.602564" stop-color="#16E072"/><stop offset="0.615385" stop-color="#16DF71"/><stop offset="0.628205" stop-color="#15DD70"/><stop offset="0.641026" stop-color="#14DC6F"/><stop offset="0.653846" stop-color="#14DB6E"/><stop offset="0.666667" stop-color="#13DA6D"/><stop offset="0.679487" stop-color="#13D86C"/><stop offset="0.692308" stop-color="#12D76B"/><stop offset="0.705128" stop-color="#11D56A"/><stop offset="0.717949" stop-color="#11D469"/><stop offset="0.730769" stop-color="#10D368"/><stop offset="0.74359" stop-color="#0FD167"/><stop offset="0.75641" stop-color="#0FD066"/><stop offset="0.769231" stop-color="#0ECE65"/><stop offset="0.782051" stop-color="#0DCD64"/><stop offset="0.794872" stop-color="#0CCB63"/><stop offset="0.807692" stop-color="#0CCA62"/><stop offset="0.820513" stop-color="#0BC861"/><stop offset="0.833333" stop-color="#0AC660"/><stop offset="0.846154" stop-color="#09C55F"/><stop offset="0.858974" stop-color="#09C35D"/><stop offset="0.871795" stop-color="#08C15C"/><stop offset="0.884615" stop-color="#07C05B"/><stop offset="0.897436" stop-color="#06BE5A"/><stop offset="0.910256" stop-color="#05BC59"/><stop offset="0.923077" stop-color="#05BB57"/><stop offset="0.935897" stop-color="#04B956"/><stop offset="0.948718" stop-color="#03B755"/><stop offset="0.961538" stop-color="#02B553"/><stop offset="0.974359" stop-color="#01B352"/><stop offset="0.987179" stop-color="#00B151"/><stop offset="1" stop-color="#00B050"/></linearGradient></defs><g clip-path="url(#clip2)" transform="translate(-427 -147)"><g clip-path="url(#clip3)" filter="url(#fx0)" transform="translate(585 429)"><g clip-path="url(#clip4)"><path d="M7 55C7 28.4903 28.4903 7 55 7 81.5097 7 103 28.4903 103 55 103 81.5097 81.5097 103 55 103 28.4903 103 7 81.5097 7 55Z" fill="#FF0000" fill-rule="evenodd"/></g></g><path d="M592 480C592 453.49 613.49 432 640 432 666.51 432 688 453.49 688 480 688 506.51 666.51 528 640 528 613.49 528 592 506.51 592 480Z" fill="url(#fill5)" fill-rule="evenodd"/><g clip-path="url(#clip6)" filter="url(#fx1)" transform="translate(489 189)"><g clip-path="url(#clip7)"><g clip-path="url(#clip8)"><g clip-path="url(#clip9)"><g clip-path="url(#clip10)"><g clip-path="url(#clip11)"><path d="M67.8964 53.7202 354.404 53.7202 354.404 125.347 67.8964 125.347Z" fill="#25FF88" transform="matrix(1.0026 0 0 1 -549.325 -234.974)"/><path d="M67.8964 125.347 354.404 125.347 354.404 196.974 67.8964 196.974Z" fill="#00E575" transform="matrix(1.0026 0 0 1 -549.325 -234.974)"/><path d="M67.8964 196.974 354.404 196.974 354.404 268.601 67.8964 268.601Z" fill="#00CA63" transform="matrix(1.0026 0 0 1 -549.325 -234.974)"/><path d="M67.8964 268.601 354.404 268.601 354.404 340.228 67.8964 340.228Z" fill="#00B050" transform="matrix(1.0026 0 0 1 -549.325 -234.974)"/></g></g></g></g></g></g><g clip-path="url(#clip12)"><g clip-path="url(#clip13)"><g clip-path="url(#clip14)"><g clip-path="url(#clip15)"><path d="M67.8964 53.7202 354.404 53.7202 354.404 125.347 67.8964 125.347Z" fill="#25FF88" transform="matrix(1.0026 0 0 1 428.675 139.026)"/><path d="M67.8964 125.347 354.404 125.347 354.404 196.974 67.8964 196.974Z" fill="#00E575" transform="matrix(1.0026 0 0 1 428.675 139.026)"/><path d="M67.8964 196.974 354.404 196.974 354.404 268.601 67.8964 268.601Z" fill="#00CA63" transform="matrix(1.0026 0 0 1 428.675 139.026)"/><path d="M67.8964 268.601 354.404 268.601 354.404 340.228 67.8964 340.228Z" fill="#00B050" transform="matrix(1.0026 0 0 1 428.675 139.026)"/></g></g></g></g><g clip-path="url(#clip16)"><g clip-path="url(#clip17)"><g clip-path="url(#clip18)"><path d="M628 356.785C616.568 350.185 612.615 335.432 619.215 324 625.815 312.568 640.568 308.615 652 315.215 663.431 321.815 667.385 336.568 660.784 348 654.185 359.432 639.431 363.385 628 356.785ZM694.265 350.01C695.426 345.599 695.967 341.062 695.962 336.671L707.792 326.181 703.619 310.608 688.129 307.438C685.765 303.533 683.028 299.874 679.817 296.635L680.928 281.11 667.072 273.11 654.01 281.735C649.599 280.574 645.062 280.033 640.671 280.038L630.18 268.208 614.608 272.381 611.438 287.871C607.533 290.235 603.874 292.972 600.635 296.183L585.11 295.072 577.11 308.928 585.734 321.99C584.574 326.401 584.033 330.938 584.038 335.329L572.208 345.819 576.38 361.392 591.871 364.562C594.235 368.467 596.972 372.126 600.183 375.365L599.245 390.99 613.101 398.99 626.163 390.365C630.574 391.526 635.111 392.067 639.502 392.062L649.993 403.892 665.565 399.719 668.735 384.229C672.64 381.865 676.299 379.128 679.538 375.917L695.163 376.855 703.163 362.999 694.265 350.01Z" fill="#FFFFFF"/></g></g></g><path d="M434 360C434 246.229 526.229 154 640 154 753.771 154 846 246.229 846 360 846 473.771 753.771 566 640 566 526.229 566 434 473.771 434 360Z" stroke="url(#stroke19)" stroke-width="12" stroke-miterlimit="8" fill="none" fill-rule="evenodd"/></g></svg>